<svg width="41" height="40" viewBox="0 0 41 40" fill="none" xmlns="http://www.w3.org/2000/svg">
<g clip-path="url(#clip0_246_5063)">
<path d="M40.5 20C40.5 29.9828 33.1859 38.257 23.625 39.757V25.7813H28.2852L29.1719 20H23.625V16.2484C23.625 14.6664 24.4 13.125 26.8844 13.125H29.4062V8.20313C29.4062 8.20313 27.1172 7.8125 24.9289 7.8125C20.3609 7.8125 17.375 10.5813 17.375 15.5938V20H12.2969V25.7813H17.375V39.757C7.81406 38.257 0.5 29.9828 0.5 20C0.5 8.95469 9.45469 0 20.5 0C31.5453 0 40.5 8.95469 40.5 20Z" fill="#1877F2"/>
<path d="M28.2852 25.7812L29.1719 20H23.625V16.2484C23.625 14.6667 24.3998 13.125 26.8843 13.125H29.4062V8.20312C29.4062 8.20312 27.1175 7.8125 24.9293 7.8125C20.3609 7.8125 17.375 10.5813 17.375 15.5938V20H12.2969V25.7812H17.375V39.757C18.3933 39.9167 19.4369 40 20.5 40C21.5631 40 22.6067 39.9167 23.625 39.757V25.7812H28.2852Z" fill="white"/>
</g>
<defs>
<clipPath id="clip0_246_5063">
<rect width="40" height="40" fill="white" transform="translate(0.5)"/>
</clipPath>
</defs>
</svg>
