<svg width="41" height="40" viewBox="0 0 41 40" fill="none" xmlns="http://www.w3.org/2000/svg">
<g clip-path="url(#clip0_246_5054)">
<path d="M38.9897 16.5226L22.6741 16.5219C21.9536 16.5219 21.3696 17.1058 21.3696 17.8262V23.0383C21.3696 23.7586 21.9536 24.3427 22.674 24.3427H31.862C30.8559 26.9537 28.9781 29.1404 26.5823 30.5297L30.5 37.3117C36.7845 33.6771 40.5 27.2998 40.5 20.1609C40.5 19.1444 40.4251 18.4178 40.2753 17.5996C40.1613 16.9779 39.6217 16.5226 38.9897 16.5226Z" fill="#167EE6"/>
<path d="M20.5 32.1739C16.0036 32.1739 12.0783 29.7172 9.97007 26.0818L3.18835 29.9907C6.63953 35.9721 13.1047 40 20.5 40C24.1279 40 27.5511 39.0232 30.5 37.3209V37.3116L26.5823 30.5296C24.7902 31.569 22.7165 32.1739 20.5 32.1739Z" fill="#12B347"/>
<path d="M30.5 37.321V37.3117L26.5823 30.5297C24.7902 31.569 22.7166 32.174 20.5 32.174V40.0001C24.1279 40.0001 27.5512 39.0233 30.5 37.321Z" fill="#0F993E"/>
<path d="M8.32609 20C8.32609 17.7837 8.93094 15.7101 9.97008 13.9182L3.18836 10.0093C1.47672 12.9489 0.5 16.3628 0.5 20C0.5 23.6372 1.47672 27.0511 3.18836 29.9907L9.97008 26.0818C8.93094 24.2898 8.32609 22.2163 8.32609 20Z" fill="#FFD500"/>
<path d="M20.5 7.82609C23.4321 7.82609 26.1254 8.86797 28.2291 10.601C28.748 11.0285 29.5023 10.9977 29.9777 10.5223L33.6707 6.8293C34.2101 6.28992 34.1716 5.40703 33.5955 4.90719C30.0709 1.84945 25.4849 0 20.5 0C13.1047 0 6.63953 4.02789 3.18835 10.0093L9.97007 13.9182C12.0783 10.2828 16.0036 7.82609 20.5 7.82609Z" fill="#FF4B26"/>
<path d="M28.2291 10.601C28.748 11.0285 29.5024 10.9977 29.9777 10.5223L33.6707 6.8293C34.21 6.28992 34.1716 5.40703 33.5955 4.90719C30.0709 1.84938 25.4849 0 20.5 0V7.82609C23.432 7.82609 26.1254 8.86797 28.2291 10.601Z" fill="#D93F21"/>
</g>
<defs>
<clipPath id="clip0_246_5054">
<rect width="40" height="40" fill="white" transform="translate(0.5)"/>
</clipPath>
</defs>
</svg>
