<svg width="25" height="24" viewBox="0 0 25 24" fill="none" xmlns="http://www.w3.org/2000/svg">
<path fill-rule="evenodd" clip-rule="evenodd" d="M12.875 6.66897L20.8725 13.7775L20.8729 17.9893C20.8729 19.6143 19.5879 20.9386 17.9805 20.9979L17.8678 21H15.8627C15.3346 21 14.902 20.5906 14.8637 20.0713L14.861 19.9964V17.6739C14.861 16.6028 14.019 15.7284 12.9608 15.6764L12.861 15.6739C11.7866 15.6739 10.912 16.5159 10.86 17.5741L10.8576 17.6739V19.9964C10.8576 20.5255 10.4489 20.9589 9.93063 20.9972L9.85587 21H7.85075C6.22879 21 4.90696 19.7127 4.84771 18.1022L4.8455 17.9893V13.806L12.875 6.66897ZM12.1982 3.24962C12.5541 2.93637 13.0763 2.91795 13.4518 3.19434L13.5204 3.24962L22.5358 11.2781C22.9502 11.6441 22.9905 12.2772 22.6259 12.6931C22.3153 13.046 21.8121 13.1281 21.4132 12.9205L13.5393 5.92153L13.4706 5.8656C13.1175 5.60341 12.6325 5.60342 12.2794 5.86562L12.2106 5.92156L4.42828 12.8396C4.01566 13.1129 3.45782 13.044 3.12472 12.6648C2.7891 12.2827 2.79442 11.714 3.12475 11.3387L3.18281 11.2781L12.1982 3.24962Z" fill="white"/>
</svg>
