<svg width="25" height="24" viewBox="0 0 25 24" fill="none" xmlns="http://www.w3.org/2000/svg">
<path fill-rule="evenodd" clip-rule="evenodd" d="M16.6277 2.50261C15.1576 2.45833 13.7264 2.97858 12.6279 3.95651C11.5295 2.97858 10.0983 2.45833 8.62821 2.50261C6.88828 2.49667 5.23719 3.27048 4.12852 4.61147C3.17559 5.76739 2.17766 7.86024 2.83861 11.272C3.89454 16.7176 11.804 21.1873 12.138 21.3713C12.4407 21.5401 12.8092 21.5401 13.1119 21.3713C13.4489 21.1843 21.3583 16.7146 22.4113 11.272C23.0722 7.86024 22.0753 5.77239 21.1223 4.61147C20.015 3.2716 18.3659 2.49788 16.6277 2.50261ZM20.2599 10.9281C19.5336 14.6782 14.257 18.1671 12.631 19.1633C11.005 18.1671 5.7283 14.6792 5.00206 10.9281C4.50198 8.34873 5.1863 6.85044 5.84918 6.04719C6.55962 5.18999 7.61642 4.69574 8.72975 4.7C9.92327 4.61049 11.0761 5.15417 11.7663 6.132C11.9356 6.44475 12.2617 6.64051 12.6173 6.6428H12.629C12.9822 6.64036 13.3072 6.44925 13.481 6.14175C14.1704 5.15616 15.329 4.60797 16.5283 4.7C17.643 4.69457 18.7014 5.18893 19.4127 6.04719C20.0737 6.85044 20.758 8.34873 20.2579 10.9281H20.2599Z" fill="#808080"/>
</svg>
