<svg width="25" height="24" viewBox="0 0 25 24" fill="none" xmlns="http://www.w3.org/2000/svg">
<path fill-rule="evenodd" clip-rule="evenodd" d="M12.375 4.5641C16.3489 4.5641 19.5703 7.77847 19.5703 11.7436L19.57 16.8715L20.0971 16.8718C20.6648 16.8718 21.125 17.331 21.125 17.8974C21.125 18.4639 20.6648 18.9231 20.0971 18.9231H15.4587C15.4587 20.6224 14.0781 22 12.375 22C10.6719 22 9.2913 20.6224 9.2913 18.9231H4.6529C4.08521 18.9231 3.625 18.4639 3.625 17.8974C3.625 17.331 4.08521 16.8718 4.6529 16.8718L5.1795 16.8715L5.1797 11.7436C5.1797 7.77847 8.40115 4.5641 12.375 4.5641ZM13.4029 18.9231H11.3471C11.3471 19.4895 11.8073 19.9487 12.375 19.9487C12.9427 19.9487 13.4029 19.4895 13.4029 18.9231ZM12.375 6.61539C9.53653 6.61539 7.2355 8.91136 7.2355 11.7436V16.8718H17.5145V11.7436C17.5145 8.91136 15.2135 6.61539 12.375 6.61539ZM13.4029 2C13.9706 2 14.4308 2.4592 14.4308 3.02564C14.4308 3.59209 13.9706 4.05128 13.4029 4.05128H11.3471C10.7794 4.05128 10.3192 3.59209 10.3192 3.02564C10.3192 2.4592 10.7794 2 11.3471 2H13.4029Z" fill="#808080"/>
</svg>
