<svg width="25" height="24" viewBox="0 0 25 24" fill="none" xmlns="http://www.w3.org/2000/svg">
<path d="M12.125 22C17.648 22 22.125 17.523 22.125 12C22.125 6.477 17.648 2 12.125 2C6.602 2 2.125 6.477 2.125 12C2.125 17.523 6.602 22 12.125 22Z" stroke="#808080" stroke-width="2" stroke-linecap="round" stroke-linejoin="round"/>
<path d="M12.125 11.5C12.788 11.5 13.4239 11.2366 13.8928 10.7678C14.3616 10.2989 14.625 9.66304 14.625 9C14.625 8.33696 14.3616 7.70107 13.8928 7.23223C13.4239 6.76339 12.788 6.5 12.125 6.5C11.462 6.5 10.8261 6.76339 10.3572 7.23223C9.88839 7.70107 9.625 8.33696 9.625 9C9.625 9.66304 9.88839 10.2989 10.3572 10.7678C10.8261 11.2366 11.462 11.5 12.125 11.5Z" stroke="#808080" stroke-width="2" stroke-linejoin="round"/>
<path d="M5.13599 19.166C5.30799 16.5605 7.47599 14.5 10.125 14.5H14.125C16.7705 14.5 18.9365 16.555 19.1135 19.1555" stroke="#808080" stroke-width="2" stroke-linecap="round" stroke-linejoin="round"/>
</svg>
